<svg xmlns="http://www.w3.org/2000/svg" width="48" height="48" viewBox="0 0 48 48"> <defs> <linearGradient id="thg" x1="20" y1="20" x2="28" y2="44" gradientUnits="userSpaceOnUse"> <stop offset="0" stop-color="#8D6E63"/> <stop offset="1" stop-color="#5D4037"/> </linearGradient> <radialGradient id="tfl" cx="24" cy="6" r="10" gradientUnits="userSpaceOnUse"> <stop offset="0" stop-color="#FFF176"/> <stop offset="0.4" stop-color="#FFB74D"/> <stop offset="0.8" stop-color="#FF7043"/> <stop offset="1" stop-color="#E64A19" stop-opacity="0"/> </radialGradient> </defs> <ellipse cx="24" cy="44" rx="5" ry="1.5" fill="#5D4037" opacity="0.15"/> <rect x="21" y="18" width="6" height="24" rx="1.5" fill="url(#thg)" stroke="#4E342E" stroke-width="0.8"/> <rect x="19" y="16" width="10" height="6" rx="2" fill="#A1887F" stroke="#6D4C41" stroke-width="0.8"/> <path d="M24 2 C28 6 30 10 28 14 C26 18 22 18 20 14 C18 10 20 6 24 2 Z" fill="url(#tfl)" opacity="0.9"/> <path d="M24 6 C26 8 27 10 26 13 C25 15 23 15 22 13 C21 10 22 8 24 6 Z" fill="#FFF176" opacity="0.8"/> <circle cx="24" cy="10" r="6" fill="#FF9800" opacity="0.15"/> </svg>