<svg xmlns="http://www.w3.org/2000/svg" width="48" height="48" viewBox="0 0 48 48"> <ellipse cx="22" cy="30" rx="12" ry="8" fill="#D7A86E" stroke="#8D6031" stroke-width="1.5"/> <circle cx="30" cy="20" r="7" fill="#D7A86E" stroke="#8D6031" stroke-width="1.5"/> <path d="M24 14 Q20 10 22 16" fill="#C09050" stroke="#8D6031" stroke-width="0.8"/> <path d="M36 14 Q40 10 38 16" fill="#C09050" stroke="#8D6031" stroke-width="0.8"/> <circle cx="28" cy="18" r="1.5" fill="#1A1A1A"/> <circle cx="33" cy="18" r="1.5" fill="#1A1A1A"/> <ellipse cx="30" cy="22" rx="2.5" ry="1.8" fill="#5D4037" stroke="#3E2723" stroke-width="0.8"/> <circle cx="30" cy="21" r="0.8" fill="#1A1A1A"/> <path d="M10 28 Q4 24 8 30 Q4 34 10 32" fill="#D7A86E" stroke="#8D6031" stroke-width="0.8"/> <line x1="16" y1="38" x2="14" y2="44" stroke="#8D6031" stroke-width="1.5"/> <line x1="22" y1="38" x2="22" y2="44" stroke="#8D6031" stroke-width="1.5"/> <line x1="26" y1="38" x2="26" y2="44" stroke="#8D6031" stroke-width="1.5"/> <line x1="30" y1="38" x2="32" y2="44" stroke="#8D6031" stroke-width="1.5"/> </svg>