<svg width="32" height="32" viewBox="0 0 32 32" xmlns="http://www.w3.org/2000/svg">
  <defs>
    <linearGradient id="waterGradDetailed" x1="0" y1="0" x2="32" y2="32" gradientUnits="userSpaceOnUse">
      <stop offset="0" stop-color="#1E90FF" />
      <stop offset="0.5" stop-color="#00BFFF" />
      <stop offset="1" stop-color="#4169E1" />
    </linearGradient>
    <filter id="waterGlow" x="0" y="0" width="100%" height="100%">
      <feGaussianBlur in="SourceGraphic" stdDeviation="0.5" result="blur" />
      <feMerge>
        <feMergeNode in="blur" />
        <feMergeNode in="SourceGraphic" />
      </feMerge>
    </filter>
  </defs>
  <rect width="32" height="32" fill="url(#waterGradDetailed)" filter="url(#waterGlow)" />
  <path d="M0 10 Q8 6 16 10 Q24 14 32 10" stroke="#FFFFFF" stroke-width="2" opacity="0.8">
    <animate attributeName="opacity" values="0.8;0.4;0.8" dur="2s" repeatCount="indefinite" />
    <animate attributeName="d" values="M0 10 Q8 6 16 10 Q24 14 32 10; M0 10 Q8 8 16 10 Q24 12 32 10; M0 10 Q8 6 16 10 Q24 14 32 10" dur="3s" repeatCount="indefinite" />
  </path>
  <path d="M0 18 Q8 14 16 18 Q24 22 32 18" stroke="#FFFFFF" stroke-width="1.5" opacity="0.6">
    <animate attributeName="opacity" values="0.6;0.3;0.6" dur="2.5s" repeatCount="indefinite" />
    <animate attributeName="d" values="M0 18 Q8 14 16 18 Q24 22 32 18; M0 18 Q8 16 16 18 Q24 20 32 18; M0 18 Q8 14 16 18 Q24 22 32 18" dur="4s" repeatCount="indefinite" />
  </path>
  <path d="M0 26 Q8 22 16 26 Q24 30 32 26" stroke="#FFFFFF" stroke-width="1" opacity="0.4">
    <animate attributeName="opacity" values="0.4;0.2;0.4" dur="3s" repeatCount="indefinite" />
  </path>
  <circle cx="8" cy="16" r="2" fill="#FFFFFF" opacity="0.7">
    <animate attributeName="r" values="2;4;2" dur="1.2s" repeatCount="indefinite" />
    <animate attributeName="cy" values="16;12;16" dur="1.2s" repeatCount="indefinite" />
    <animate attributeName="opacity" values="0.7;0.3;0.7" dur="1.2s" repeatCount="indefinite" />
  </circle>
  <circle cx="24" cy="24" r="1.5" fill="#FFFFFF" opacity="0.5">
    <animate attributeName="r" values="1.5;3;1.5" dur="1.8s" repeatCount="indefinite" />
    <animate attributeName="cy" values="24;20;24" dur="1.8s" repeatCount="indefinite" />
    <animate attributeName="opacity" values="0.5;0.2;0.5" dur="1.8s" repeatCount="indefinite" />
  </circle>
  <path d="M4 28 Q8 26 12 28 Q16 30 20 28 Q24 26 28 28" stroke="#ADD8E6" stroke-width="1" opacity="0.3" /> <!-- Foam details -->
  <rect x="0" y="28" width="32" height="4" fill="#000000" opacity="0.15" filter="url(#waterGlow)" /> <!-- Glowing shadow -->
</svg>
